<svg height="24" viewBox="0 0 24 24" width="24" xmlns="http://www.w3.org/2000/svg">
    <path clip-rule="evenodd"
          d="M20 12.421C20 16.8393 16.4183 20.421 12 20.421C7.58172 20.421 4 16.8393 4 12.421C4 8.00274 7.58172 4.42102 12 4.42102C16.4183 4.42102 20 8.00274 20 12.421ZM22 12.421C22 17.9439 17.5228 22.421 12 22.421C6.47715 22.421 2 17.9439 2 12.421C2 6.89817 6.47715 2.42102 12 2.42102C17.5228 2.42102 22 6.89817 22 12.421ZM13 8.42102V13.421H11V8.42102C11 7.86874 11.4477 7.42102 12 7.42102C12.5523 7.42102 13 7.86874 13 8.42102ZM11 14.421V16.421H13V14.421H11Z"
          fill-rule="evenodd"/>
</svg>
