<svg width="24" height="24" viewBox="0 0 24 24" xmlns="http://www.w3.org/2000/svg">
    <path fill-rule="evenodd" clip-rule="evenodd" d="M13 3V8H19L19.6955 12.8686C20.384 17.6881 16.6443 22 11.7759 22H3L5 8H11V3C11 2.44772 11.4477 2 12 2C12.5523 2 13 2.44772 13 3ZM6.44888 12L6.73459 10H17.2654L17.5511 12H6.44888ZM6.16316 14L5.30602 20H7.1332L7.87243 16.3039C7.98074 15.7623 8.50756 15.4111 9.04912 15.5194C9.59068 15.6277 9.9419 16.1546 9.83359 16.6961L9.17281 20H11.7759C15.1386 20 17.7833 17.2571 17.777 14H6.16316Z"/>
</svg>
