<svg width="24" height="24" viewBox="0 0 24 24" xmlns="http://www.w3.org/2000/svg">
<path fill-rule="evenodd" clip-rule="evenodd" d="M22 12C22 17.5228 17.5228 22 12 22C6.47715 22 2 17.5228 2 12C2 6.47715 6.47715 2 12 2C17.5228 2 22 6.47715 22 12ZM20 12C20 16.4183 16.4183 20 12 20C7.58172 20 4 16.4183 4 12C4 7.58172 7.58172 4 12 4C16.4183 4 20 7.58172 20 12ZM14.0255 8.56027C14.416 8.16975 15.0492 8.16975 15.4397 8.56027C15.8302 8.9508 15.8302 9.58396 15.4397 9.97448L13.4141 12.0001L15.6235 14.2095C16.0141 14.6001 16.0141 15.2332 15.6235 15.6237C15.233 16.0143 14.5999 16.0143 14.2093 15.6237L11.9999 13.4143L9.97444 15.4397C9.58392 15.8303 8.95075 15.8303 8.56023 15.4397C8.1697 15.0492 8.1697 14.4161 8.56023 14.0255L10.5857 12.0001L8.37605 9.79046C7.98552 9.39994 7.98552 8.76678 8.37605 8.37625C8.76657 7.98573 9.39974 7.98573 9.79026 8.37625L11.9999 10.5859L14.0255 8.56027Z"/>
</svg>
