<svg width="24" height="24" viewBox="0 0 24 24" xmlns="http://www.w3.org/2000/svg">
    <path fill-rule="evenodd" clip-rule="evenodd" d="M5 2C3.34315 2 2 3.34315 2 5V15C2 16.6569 3.34315 18 5 18H6V19C6 20.6569 7.34315 22 9 22H19C20.6569 22 22 20.6569 22 19V9C22 7.34315 20.6569 6 19 6H18V5C18 3.34315 16.6569 2 15 2H5ZM16 6V5C16 4.44772 15.5523 4 15 4H5C4.44772 4 4 4.44772 4 5V15C4 15.5523 4.44772 16 5 16H6V9C6 7.34315 7.34315 6 9 6H16ZM8 16V9C8 8.44772 8.44772 8 9 8H16V15C16 15.5523 15.5523 16 15 16H8ZM8 18H15C16.6569 18 18 16.6569 18 15V8H19C19.5523 8 20 8.44772 20 9V19C20 19.5523 19.5523 20 19 20H9C8.44772 20 8 19.5523 8 19V18Z"/>
</svg>
