<svg width="24" height="24" viewBox="0 0 24 24" xmlns="http://www.w3.org/2000/svg">
    <path fill-rule="evenodd" clip-rule="evenodd" d="M19.0711 6.34313C19.4616 5.95261 19.4616 5.31944 19.0711 4.92892C18.6805 4.53839 18.0474 4.53839 17.6569 4.92892L12 10.5858L6.34315 4.92892C5.95262 4.53839 5.31946 4.53839 4.92893 4.92892C4.53841 5.31944 4.53841 5.95261 4.92893 6.34313L10.5858 12L4.92893 17.6568C4.53841 18.0474 4.53841 18.6805 4.92893 19.0711C5.31946 19.4616 5.95262 19.4616 6.34315 19.0711L12 13.4142L17.6569 19.0711C18.0474 19.4616 18.6805 19.4616 19.0711 19.0711C19.4616 18.6805 19.4616 18.0474 19.0711 17.6568L13.4142 12L19.0711 6.34313Z"/>
</svg>
