<svg width="24" height="24" viewBox="0 0 24 24" xmlns="http://www.w3.org/2000/svg">
    <path d="M10 10C9.44772 10 9 10.4477 9 11V15C9 15.5523 9.44772 16 10 16C10.5523 16 11 15.5523 11 15V11C11 10.4477 10.5523 10 10 10Z"/>
    <path d="M14 16C13.4477 16 13 15.5523 13 15V11C13 10.4477 13.4477 10 14 10C14.5523 10 15 10.4477 15 11V15C15 15.5523 14.5523 16 14 16Z"/>
    <path fill-rule="evenodd" clip-rule="evenodd" d="M10 4L10.5528 2.89443C10.8269 2.34626 11.3871 2 12 2C12.6129 2 13.1731 2.34626 13.4472 2.89443L14 4H21C21.5523 4 22 4.44772 22 5C22 5.55228 21.5523 6 21 6H19.9395L19.1153 18.1871C19.0164 19.7682 17.7053 21 16.1211 21H7.87891C6.29472 21 4.98357 19.7682 4.88475 18.1871L4.06055 6H3C2.44772 6 2 5.55228 2 5C2 4.44772 2.44772 4 3 4H10ZM6.06446 6H17.9356L17.1192 18.0624C17.0862 18.5894 16.6492 19 16.1211 19H7.87891C7.35084 19 6.9138 18.5894 6.88086 18.0624L6.06446 6Z"/>
</svg>
