<svg width="24" height="24" viewBox="0 0 24 24" xmlns="http://www.w3.org/2000/svg">
    <path fill-rule="evenodd" clip-rule="evenodd" d="M16 12C16 14.2091 14.2091 16 12 16C9.79086 16 8 14.2091 8 12C8 9.79086 9.79086 8 12 8C14.2091 8 16 9.79086 16 12ZM14 12C14 13.1046 13.1046 14 12 14C10.8954 14 10 13.1046 10 12C10 10.8954 10.8954 10 12 10C13.1046 10 14 10.8954 14 12Z"/>
    <path fill-rule="evenodd" clip-rule="evenodd" d="M12 20C4.5 20 2 12 2 12C2 12 4.5 4 12 4C19.5 4 22 12 22 12C22 12 19.5 20 12 20ZM3.90672 12.6037L3.908 12.5997L3.9074 12.6015L3.90672 12.6037ZM4.31873 11.5989C4.25002 11.7455 4.19037 11.8801 4.13942 12C4.19037 12.1199 4.25002 12.2545 4.31873 12.4011C4.62476 13.054 5.09776 13.9165 5.76355 14.7687C7.09052 16.4672 9.06623 18 12 18C14.9338 18 16.9095 16.4672 18.2365 14.7687C18.9022 13.9165 19.3752 13.054 19.6813 12.4011C19.75 12.2545 19.8096 12.1199 19.8606 12C19.8096 11.8801 19.75 11.7455 19.6813 11.5989C19.3752 10.946 18.9022 10.0835 18.2365 9.23129C16.9095 7.53276 14.9338 6 12 6C9.06623 6 7.09052 7.53276 5.76355 9.23129C5.09776 10.0835 4.62476 10.946 4.31873 11.5989ZM3.9074 11.3985L3.908 11.4003L3.90672 11.3964L3.9074 11.3985Z"/>
</svg>
