<svg width="24" height="24" viewBox="0 0 24 24" xmlns="http://www.w3.org/2000/svg">
    <path fill-rule="evenodd" clip-rule="evenodd" d="M18.6781 6.73619L20.7072 4.70711C21.0977 4.31658 21.0977 3.68342 20.7072 3.29289C20.3167 2.90237 19.6835 2.90237 19.293 3.29289L3.29299 19.2929C2.90246 19.6834 2.90246 20.3166 3.29299 20.7071C3.68351 21.0976 4.31668 21.0976 4.7072 20.7071L6.8959 18.5184C8.25397 19.3953 9.93801 20 12 20C19.5 20 22 12 22 12C22 12 21.079 9.05291 18.6781 6.73619ZM17.2643 8.14999L15.4462 9.96809C15.7981 10.5636 16 11.2582 16 12C16 14.2091 14.2091 16 12 16C11.2582 16 10.5636 15.7981 9.96809 15.4462L8.35157 17.0627C9.36328 17.6345 10.5674 18 12 18C14.9338 18 16.9095 16.4672 18.2365 14.7687C18.9022 13.9165 19.3752 13.054 19.6813 12.4011C19.75 12.2545 19.8096 12.1199 19.8606 12C19.8096 11.8801 19.75 11.7455 19.6813 11.5989C19.3752 10.946 18.9022 10.0835 18.2365 9.23129C17.9448 8.85801 17.6219 8.49275 17.2643 8.14999ZM11.482 13.9323C11.6472 13.9764 11.8209 14 12 14C13.1046 14 14 13.1046 14 12C14 11.8209 13.9764 11.6472 13.9323 11.482L11.482 13.9323ZM12 4C13.3964 4 14.6195 4.27734 15.6854 4.72873L14.1211 6.29306C13.4766 6.10597 12.7714 6 12 6C9.06623 6 7.09052 7.53276 5.76355 9.23129C5.09776 10.0835 4.62476 10.946 4.31873 11.5989C4.25002 11.7455 4.19037 11.8801 4.13942 12C4.19037 12.1199 4.25002 12.2545 4.31873 12.4011C4.6168 13.037 5.07326 13.8718 5.71198 14.7022L4.28762 16.1265C2.65164 14.0853 2 12 2 12C2 12 4.5 4 12 4ZM12 8C12.1333 8 12.265 8.00652 12.3949 8.01925L8.01925 12.3949C8.00652 12.265 8 12.1333 8 12C8 9.79086 9.79086 8 12 8ZM3.90672 12.6037L3.908 12.5997L3.9074 12.6015L3.90672 12.6037ZM3.9074 11.3985L3.908 11.4003L3.90672 11.3963L3.9074 11.3985Z"/>
</svg>
