<svg width="24" height="24" viewBox="0 0 24 24" xmlns="http://www.w3.org/2000/svg">
    <path fill-rule="evenodd" clip-rule="evenodd" d="M9.94206 5.29031L10.6771 3.09639C11.1083 3.03293 11.55 3 11.9998 3C12.4497 3 12.8914 3.03293 13.3226 3.09639L14.0576 5.29025L14.4987 5.45887C15.1966 5.72565 15.8414 6.10128 16.4123 6.56546L16.779 6.86361L19.0482 6.40284C19.596 7.09167 20.0446 7.86213 20.373 8.69263L18.8392 10.4276L18.9131 10.8933C18.9702 11.2532 18.9999 11.6228 18.9999 12C18.9999 12.3772 18.9702 12.7468 18.9131 13.1067L18.8392 13.5724L20.373 15.3074C20.0446 16.1379 19.596 16.9083 19.0482 17.5972L16.779 17.1364L16.4123 17.4345C15.8414 17.8987 15.1966 18.2744 14.4987 18.5411L14.0576 18.7098L13.3226 20.9036C12.8914 20.9671 12.4497 21 11.9998 21C11.55 21 11.1083 20.9671 10.6771 20.9036L9.94206 18.7097L9.50096 18.5411C8.80315 18.2743 8.15835 17.8987 7.58748 17.4345L7.22079 17.1364L4.95151 17.5972C4.4037 16.9083 3.95505 16.1379 3.6267 15.3074L5.16063 13.5723L5.08675 13.1065C5.02967 12.7467 4.99993 12.3772 4.99993 12C4.99993 11.6228 5.02967 11.2533 5.08675 10.8935L5.16062 10.4277L3.6267 8.69263C3.95505 7.86213 4.4037 7.09167 4.95151 6.40284L7.22079 6.86364L7.58748 6.56549C8.15835 6.10134 8.80315 5.72572 9.50096 5.45895L9.94206 5.29031ZM11.9998 1C11.2155 1 10.4493 1.08225 9.7097 1.23894L9.15038 1.35744L8.3403 3.77546C7.76143 4.03338 7.21507 4.35046 6.70887 4.71887L4.21101 4.21166L3.82875 4.63554C2.80708 5.76846 2.017 7.11596 1.53456 8.60334L1.3584 9.14644L3.04868 11.0584C3.01643 11.3681 2.99993 11.6823 2.99993 12C2.99993 12.3177 3.01643 12.6319 3.04868 12.9416L1.3584 14.8536L1.53456 15.3967C2.017 16.884 2.80708 18.2315 3.82875 19.3645L4.21101 19.7883L6.70887 19.2811C7.21507 19.6495 7.76143 19.9666 8.34031 20.2245L9.15038 22.6426L9.7097 22.7611C10.4493 22.9178 11.2155 23 11.9998 23C12.7842 23 13.5504 22.9178 14.29 22.7611L14.8493 22.6426L15.6593 20.2246C16.2383 19.9667 16.7847 19.6496 17.291 19.2812L19.7887 19.7883L20.1709 19.3645C21.1926 18.2315 21.9827 16.884 22.4651 15.3967L22.6413 14.8536L20.9512 12.9418C20.9834 12.632 20.9999 12.3178 20.9999 12C20.9999 11.6822 20.9834 11.368 20.9512 11.0582L22.6413 9.14644L22.4651 8.60334C21.9827 7.11596 21.1926 5.76846 20.1709 4.63554L19.7887 4.21166L17.291 4.71884C16.7847 4.3504 16.2383 4.03329 15.6593 3.77536L14.8493 1.35744L14.29 1.23894C13.5504 1.08225 12.7842 1 11.9998 1ZM10 12C10 10.8954 10.8954 10 12 10C13.1046 10 14 10.8954 14 12C14 13.1046 13.1046 14 12 14C10.8954 14 10 13.1046 10 12ZM12 8C9.79086 8 8 9.79086 8 12C8 14.2091 9.79086 16 12 16C14.2091 16 16 14.2091 16 12C16 9.79086 14.2091 8 12 8Z"/>
</svg>
