<svg height="24" viewBox="0 0 24 24" width="24" xmlns="http://www.w3.org/2000/svg">
    <path clip-rule="evenodd"
          d="M12 20.421C16.4183 20.421 20 16.8393 20 12.421C20 8.00274 16.4183 4.42102 12 4.42102C7.58172 4.42102 4 8.00274 4 12.421C4 16.8393 7.58172 20.421 12 20.421ZM12 22.421C17.5228 22.421 22 17.9439 22 12.421C22 6.89817 17.5228 2.42102 12 2.42102C6.47715 2.42102 2 6.89817 2 12.421C2 17.9439 6.47715 22.421 12 22.421ZM11 10.421V8.42102H13V10.421H11ZM11 16.421V11.421H13V16.421C13 16.9733 12.5523 17.421 12 17.421C11.4477 17.421 11 16.9733 11 16.421Z"
          fill-rule="evenodd"/>
</svg>
