<svg width="24" height="24" viewBox="0 0 24 24" xmlns="http://www.w3.org/2000/svg">
    <path fill-rule="evenodd" clip-rule="evenodd" d="M4 3C4 2.44772 3.55228 2 3 2C2.44772 2 2 2.44772 2 3V22H21C21.5523 22 22 21.5523 22 21C22 20.4477 21.5523 20 21 20H4V3ZM20.7683 6.64018C21.1219 6.2159 21.0646 5.58534 20.6403 5.23177C20.216 4.87821 19.5854 4.93553 19.2319 5.35981L14.7389 10.7514L10.6577 8.71078L6.16806 15.4453C5.8617 15.9048 5.98588 16.5257 6.44541 16.832C6.90493 17.1384 7.5258 17.0142 7.83216 16.5547L11.3425 11.2892L15.2613 13.2486L20.7683 6.64018Z"/>
</svg>
