<svg width="24" height="24" viewBox="0 0 24 24" xmlns="http://www.w3.org/2000/svg">
    <path fill-rule="evenodd" clip-rule="evenodd" d="M4 12C4 7.58172 7.58172 4 12 4C14.7677 4 17.2087 5.40549 18.6457 7.54451L16.121 6.97531C15.5822 6.85385 15.047 7.19213 14.9255 7.73089C14.8041 8.26965 15.1424 8.80488 15.6811 8.92634L21.4864 10.2352L22.7952 4.42987C22.9167 3.89111 22.5784 3.35589 22.0397 3.23442C21.5009 3.11296 20.9657 3.45124 20.8442 3.99001L20.2971 6.41661C18.5016 3.7535 15.4563 2 12 2C6.47715 2 2 6.47715 2 12C2 17.5228 6.47715 22 12 22C15.3441 22 18.3038 20.3581 20.1184 17.8399C20.4413 17.3918 20.274 16.7765 19.796 16.5C19.3179 16.2235 18.7108 16.3915 18.377 16.8315C16.915 18.7581 14.6021 20 12 20C7.58172 20 4 16.4183 4 12Z"/>
</svg>
