<svg width="24" height="24" viewBox="0 0 24 24" xmlns="http://www.w3.org/2000/svg">
<path fill-rule="evenodd" clip-rule="evenodd" d="M22 12C22 17.5228 17.5228 22 12 22C6.47715 22 2 17.5228 2 12C2 6.47715 6.47715 2 12 2C17.5228 2 22 6.47715 22 12ZM20 12C20 16.4183 16.4183 20 12 20C7.58172 20 4 16.4183 4 12C4 7.58172 7.58172 4 12 4C16.4183 4 20 7.58172 20 12ZM10.707 15.8949L15.1878 11.4142C15.5783 11.0237 15.5783 10.3906 15.1878 10C14.7972 9.6095 14.1641 9.6095 13.7736 10L10.707 13.0665L10.1213 12.4807C9.73073 12.0902 9.09757 12.0902 8.70704 12.4807C8.31651 12.8712 8.31651 13.5044 8.70703 13.8949L10.707 15.8949Z"/>
</svg>
