<svg width="24" height="25" viewBox="0 0 24 25" xmlns="http://www.w3.org/2000/svg">
<path fill-rule="evenodd" clip-rule="evenodd" d="M2 6.82611C2 4.61697 3.79086 2.82611 6 2.82611H18C20.2091 2.82611 22 4.61697 22 6.82611V18.8261C22 21.0352 20.2091 22.8261 18 22.8261H6C3.79086 22.8261 2 21.0352 2 18.8261V6.82611ZM10 4.82611H18C19.1046 4.82611 20 5.72154 20 6.82611V8.82611H10V4.82611ZM8 4.82611L6 4.82611C4.89543 4.82611 4 5.72154 4 6.82611V8.82611H8V4.82611ZM8 10.8261H4V14.8261H8V10.8261ZM8 16.8261H4V18.8261C4 19.9307 4.89543 20.8261 6 20.8261H8L8 16.8261ZM10 20.8261L10 16.8261H20V18.8261C20 19.9307 19.1046 20.8261 18 20.8261H10ZM10 14.8261V10.8261H20V14.8261H10Z"/>
</svg>
